<?xml version="1.0" encoding="UTF-8"?>
<svg width="14px" height="14px" viewBox="0 0 14 14" version="1.1" xmlns="http://www.w3.org/2000/svg" xmlns:xlink="http://www.w3.org/1999/xlink">
    <!-- Generator: Sketch 50.2 (55047) - http://www.bohemiancoding.com/sketch -->
    <title>icon /call</title>
    <desc>Created with Sketch.</desc>
    <defs>
        <path d="M0.706507909,2.95439566 C0.741024216,2.57728755 0.885992707,2.26264871 1.15924681,1.9904202 L2.21774689,0.935892943 C2.3828499,0.776567628 2.56521105,0.694612521 2.74181949,0.694612521 C2.9149763,0.694612521 3.09158474,0.776567628 3.25381138,0.941050956 C3.44480162,1.11699654 3.62371114,1.30153881 3.81757774,1.49697022 C3.9142234,1.5961187 4.01374542,1.69526719 4.11326743,1.79728124 L4.96179332,2.64262239 C5.13840176,2.81856797 5.2292947,2.996806 5.2292947,3.17275158 C5.2292947,3.34869716 5.13840176,3.5275083 4.96179332,3.70345389 C4.87377674,3.79114012 4.78518488,3.88169192 4.6971683,3.96937815 C4.43254328,4.23587553 4.18460114,4.4886182 3.91134704,4.72989863 C3.90559432,4.73505664 3.90271796,4.7379222 3.89696524,4.74365333 C3.66110381,4.97920262 3.6979212,5.20328967 3.75487311,5.37350412 C3.75774947,5.3815277 3.76062583,5.38725882 3.76350219,5.39585551 C3.98268074,5.92025358 4.28699951,6.41943469 4.76217401,7.01489872 C5.61645261,8.06426797 6.51560242,8.87808792 7.50622044,9.50450004 C7.62875333,9.58416269 7.75934002,9.64663197 7.88187291,9.70910125 C7.99577673,9.7658394 8.10105146,9.81971199 8.19539604,9.8793157 C8.2063262,9.88447372 8.21495528,9.89020484 8.22646071,9.89593597 C8.32023002,9.94407743 8.41169823,9.96700194 8.50259117,9.96700194 C8.7303988,9.96700194 8.87824365,9.82200444 8.92656648,9.77386298 L9.99081929,8.71360459 C10.1559223,8.54912126 10.3354071,8.46086192 10.5120155,8.46086192 C10.7283177,8.46086192 10.9049262,8.59439716 11.0153783,8.71360459 L12.7319894,10.420334 C13.0737008,10.7607629 13.0708244,11.1292744 12.7233603,11.4897622 C12.6037037,11.6169932 12.4788698,11.7390662 12.3448314,11.8668703 C12.1457874,12.0594362 11.937539,12.2577332 11.7500004,12.4823933 C11.4226708,12.8337114 11.0326365,12.9981947 10.5292737,12.9981947 C10.4803756,12.9981947 10.4291764,12.9953291 10.3808536,12.9924636 C9.44718745,12.9328599 8.57967759,12.5700796 7.92731939,12.2605987 C6.1572081,11.407234 4.60282373,10.1968201 3.31363965,8.659732 C2.2522632,7.38627572 1.53777564,6.20165189 1.0654775,4.93106116 C0.772088893,4.15105486 0.661061438,3.52464274 0.706507909,2.95439566 M2.77288417,9.09644384 C4.12764923,10.7097559 5.75854475,11.9803466 7.62012425,12.8789873 C8.32885909,13.213685 9.27633173,13.6108521 10.3325307,13.6784794 C10.3981117,13.681345 10.4608163,13.6842105 10.525822,13.6842105 C11.2351322,13.6842105 11.804076,13.4406377 12.2683203,12.938591 C12.2711967,12.9357254 12.2763741,12.9299943 12.2792505,12.9242632 C12.4443535,12.7259662 12.6324673,12.547155 12.828635,12.3574548 C12.9626733,12.2296506 13.0990128,12.0966885 13.2301747,11.9602877 C13.8365112,11.33101 13.8365112,10.5309448 13.224422,9.92172604 L11.514139,8.21728904 C11.2236267,7.91697802 10.8761626,7.75822582 10.5120155,7.75822582 C10.1478685,7.75822582 9.79752797,7.91697802 9.49838664,8.21442348 L8.4795803,9.22940597 C8.385811,9.17553338 8.28916534,9.12739192 8.19769713,9.08211602 C8.08379331,9.02537787 7.97909385,8.97150528 7.88474927,8.91247468 C6.95683588,8.32503422 6.11463798,7.55935573 5.30868221,6.57532133 C4.90196505,6.06238552 4.62871096,5.63140481 4.43772072,5.19182741 C4.70579738,4.95054699 4.9560406,4.69837743 5.19823003,4.45193899 C5.28337025,4.36367965 5.37138683,4.27599341 5.45997869,4.18773407 C5.76717382,3.88169192 5.93227683,3.5275083 5.93227683,3.16702045 C5.93227683,2.80710572 5.77005018,2.4529221 5.45997869,2.14630684 L4.6114528,1.30153881 C4.51193078,1.20181721 4.41816148,1.10553428 4.32151582,1.0063858 C4.13340195,0.81381995 3.93723427,0.614949864 3.74336767,0.43613872 C3.45055434,0.150155512 3.10596653,0 2.74181949,0 C2.37997354,0 2.03308465,0.150155512 1.7281906,0.439577396 L0.663937797,1.49983578 C0.276779884,1.88554059 0.0576013328,2.3532005 0.0121548616,2.89479195 C-0.0419206865,3.5727842 0.0834885632,4.29261368 0.40736658,5.16317178 C0.905551947,6.5105596 1.6568569,7.76109138 2.77288417,9.09644384" id="path-1"></path>
    </defs>
    <g id="Symbols" stroke="none" stroke-width="1" fill="none" fill-rule="evenodd">
        <g id="Menu-/normal" transform="translate(-1210.000000, -44.000000)">
            <g id="icon-/call" transform="translate(1207.000000, 41.000000)">
                <g id="swatch-/dark-grey" transform="translate(3.157895, 3.157895)">
                    <mask id="mask-2" fill="white">
                        <use xlink:href="#path-1"></use>
                    </mask>
                    <use id="Mask" fill="#58585A" xlink:href="#path-1"></use>
                    <g id="swatch-/white" mask="url(#mask-2)" fill="#FFFFFF">
                        <g transform="translate(-15.789474, -15.789474)" id="Rectangle">
                            <rect x="0" y="0" width="48" height="49"></rect>
                        </g>
                    </g>
                </g>
            </g>
        </g>
    </g>
</svg>